<svg width="24" height="26" viewBox="0 0 24 26" fill="none" xmlns="http://www.w3.org/2000/svg">
<path fill-rule="evenodd" clip-rule="evenodd" d="M6.7625 0.40332H17.2388C21.1 0.40332 23.25 2.62832 23.25 6.44082V19.3533C23.25 23.2283 21.1 25.4033 17.2388 25.4033H6.7625C2.9625 25.4033 0.75 23.2283 0.75 19.3533V6.44082C0.75 2.62832 2.9625 0.40332 6.7625 0.40332ZM7.1 6.22832V6.21582H10.8363C11.375 6.21582 11.8125 6.65332 11.8125 7.18957C11.8125 7.74082 11.375 8.17832 10.8363 8.17832H7.1C6.56125 8.17832 6.125 7.74082 6.125 7.20332C6.125 6.66582 6.56125 6.22832 7.1 6.22832ZM7.1 13.8283H16.9C17.4375 13.8283 17.875 13.3908 17.875 12.8533C17.875 12.3158 17.4375 11.8771 16.9 11.8771H7.1C6.56125 11.8771 6.125 12.3158 6.125 12.8533C6.125 13.3908 6.56125 13.8283 7.1 13.8283ZM7.1 19.5408H16.9C17.3988 19.4908 17.775 19.0646 17.775 18.5658C17.775 18.0533 17.3988 17.6283 16.9 17.5783H7.1C6.725 17.5408 6.3625 17.7158 6.1625 18.0408C5.9625 18.3533 5.9625 18.7658 6.1625 19.0908C6.3625 19.4033 6.725 19.5908 7.1 19.5408Z" fill="#929BA6"/>
</svg>
