<svg width="26" height="26" viewBox="0 0 26 26" fill="none" xmlns="http://www.w3.org/2000/svg">
<path fill-rule="evenodd" clip-rule="evenodd" d="M13.408 0.665399C13.6076 0.486223 13.8717 0.392304 14.1419 0.404351C19.8554 0.575389 24.6305 4.72307 25.4959 10.2666C25.5014 10.2997 25.5014 10.3335 25.4959 10.3666C25.5145 10.6289 25.4259 10.8876 25.2495 11.0856C25.0732 11.2836 24.8237 11.4046 24.5563 11.4216L14.957 12.0547C14.6395 12.0828 14.3247 11.9784 14.0898 11.767C13.8549 11.5556 13.7218 11.2568 13.7231 10.9441L13.0778 1.51497V1.35948C13.0896 1.09429 13.2084 0.844574 13.408 0.665399ZM12.7496 14.5203L21.0371 14.0094H21.1264C21.4836 14.0152 21.8239 14.1601 22.0723 14.4121C22.3207 14.6642 22.4569 15.0027 22.4508 15.3532C22.1229 20.1308 18.6202 24.1227 13.8535 25.1511C9.08672 26.1795 4.20022 23.9976 1.85973 19.7957C1.17152 18.5855 0.736628 17.2526 0.580567 15.8752C0.520039 15.4671 0.493538 15.0548 0.501327 14.6424C0.517103 9.56215 4.1341 5.17715 9.19509 4.1027C9.80775 3.98802 10.422 4.29392 10.6893 4.84681C10.8214 5.04591 10.8556 5.2897 10.8712 5.52811C10.9588 6.87068 11.0491 8.2021 11.1391 9.52835C11.2165 10.6692 11.2936 11.8062 11.3685 12.9432C11.3647 13.211 11.4068 13.4776 11.493 13.7317C11.6962 14.2317 12.2017 14.549 12.7496 14.5203Z" fill="#7D9FEF"/>
</svg>
