<svg width="30" height="31" viewBox="0 0 30 31" fill="none" xmlns="http://www.w3.org/2000/svg">
<path d="M21.9125 10.6158C21.825 10.6033 21.7375 10.6033 21.65 10.6158C19.7125 10.5533 18.175 8.96582 18.175 7.01582C18.175 5.02832 19.7875 3.40332 21.7875 3.40332C23.775 3.40332 25.4 5.01582 25.4 7.01582C25.3875 8.96582 23.85 10.5533 21.9125 10.6158Z" fill="#929BA6"/>
<path d="M25.9875 19.2783C24.5875 20.2158 22.625 20.5658 20.8125 20.3283C21.2875 19.3033 21.5375 18.1658 21.55 16.9658C21.55 15.7158 21.275 14.5283 20.75 13.4908C22.6 13.2408 24.5625 13.5908 25.975 14.5283C27.95 15.8283 27.95 17.9658 25.9875 19.2783Z" fill="#929BA6"/>
<path d="M8.05001 10.6158C8.13751 10.6033 8.22501 10.6033 8.31251 10.6158C10.25 10.5533 11.7875 8.96582 11.7875 7.01582C11.7875 5.01582 10.175 3.40332 8.17501 3.40332C6.18751 3.40332 4.57501 5.01582 4.57501 7.01582C4.57501 8.96582 6.11251 10.5533 8.05001 10.6158Z" fill="#929BA6"/>
<path d="M8.18753 16.9658C8.18753 18.1783 8.45003 19.3283 8.92502 20.3658C7.16252 20.5533 5.32502 20.1783 3.97502 19.2908C2.00002 17.9783 2.00002 15.8408 3.97502 14.5283C5.31252 13.6283 7.20003 13.2658 8.97503 13.4658C8.46252 14.5158 8.18753 15.7033 8.18753 16.9658Z" fill="#929BA6"/>
<path d="M15.15 20.7408C15.05 20.7283 14.9375 20.7283 14.825 20.7408C12.525 20.6658 10.6875 18.7783 10.6875 16.4533C10.7 14.0783 12.6125 12.1533 15 12.1533C17.375 12.1533 19.3 14.0783 19.3 16.4533C19.2875 18.7783 17.4625 20.6658 15.15 20.7408Z" fill="#929BA6"/>
<path d="M11.0875 23.3284C9.2 24.5909 9.2 26.6659 11.0875 27.9159C13.2375 29.3534 16.7625 29.3534 18.9125 27.9159C20.8 26.6534 20.8 24.5784 18.9125 23.3284C16.775 21.8909 13.25 21.8909 11.0875 23.3284Z" fill="#929BA6"/>
</svg>
